<?xml version="1.0" encoding="utf-8"?>
<!-- Generator: Adobe Illustrator 21.1.0, SVG Export Plug-In . SVG Version: 6.00 Build 0)  -->
<svg version="1.1" id="Layer_1" xmlns="http://www.w3.org/2000/svg" xmlns:xlink="http://www.w3.org/1999/xlink" x="0px" y="0px"
	 width="26px" height="26px" viewBox="0 0 26 26" style="enable-background:new 0 0 26 26;" xml:space="preserve">
<path d="M17.4,4.6c-3.5-3.5-9.2-3.5-12.7,0s-3.5,9.2,0,12.7c3.3,3.3,8.4,3.5,12,0.7l5,5c0.4,0.4,1,0.4,1.4,0c0.4-0.4,0.4-1,0-1.4
	l-5-5C20.9,13.1,20.7,7.9,17.4,4.6z M16,16c-2.7,2.7-7.2,2.7-9.9,0s-2.7-7.2,0-9.9s7.2-2.7,9.9,0S18.7,13.2,16,16z"/>
</svg>
